<?xml version="1.0" encoding="utf-8"?>
<!-- Generator: Adobe Illustrator 19.0.0, SVG Export Plug-In . SVG Version: 6.00 Build 0)  -->
<!DOCTYPE svg PUBLIC "-//W3C//DTD SVG 1.1//EN" "http://www.w3.org/Graphics/SVG/1.1/DTD/svg11.dtd">
<svg version="1.1" id="レイヤー_1" xmlns="http://www.w3.org/2000/svg" xmlns:xlink="http://www.w3.org/1999/xlink" x="0px"
	 y="0px" viewBox="465 170.9 500 500" style="enable-background:new 465 170.9 500 500;" xml:space="preserve">
<style type="text/css">
	.st0{fill:#333333;}
	.st1{fill:#D44A00;}
	.st2{fill:#FFFFFF;}
</style>
<g id="XMLID_59_">
	<path id="XMLID_60_" class="st0" d="M797.7,546.2c-1.3-4.4-3.4-6.8-8.2-6.8c-17.9,0-35.4,4.8-53.3,4.8c-3.2,0-9.6-0.9-10.8-4.3
		c-0.4-0.9-0.8-6.2-1.8-6.2c-1.9,0-3.5,10.1-7.2,10.1c-4.9,0-15-13.5-15-18c0-6.2,3-12.5,4-18.6c1.6-10.1,1.6-20.5,1.6-30.7
		c0-5.9,0.3-12,0.9-17.8c0.1-1.6,0.5-4.3,1.1-5.8c2.4-5.5,11.5-5.8,16.6-5.8c4.2,0,8.4,0.1,12.7,0.1c1.8,0,3.5,0,5.3-0.1
		c14.4-0.9,0.1-13.9,15.8-13.9c2,0,4,0.4,6.2,0.4c4.7,0,8.7,0.1,8.7,5.9c0,16.9,43.2-3.5,43.2,19.8c0,1-0.3,2.1-0.6,3
		c-0.5,1-1.4,1.5-2.4,1.9c-4.9,1.9-21.4,1.8-27.5,1.8c-11.1,0-22.3-0.5-33.4-0.5c-5.5,0-15.4,0.3-20.3,2.5c-1.5,0.8-2.4,2-3,3.5
		c-1,2.6-1.1,6.2-1.1,8.9c0,2.9,0.3,5.7,0.3,8.4c0,11.2-2.5,22.1-2.5,33.3c0,2,1.8,3.3,3.7,3.3c1.3,0,2.4-0.1,3.4-0.9
		c6-4.4,11-20.5,13.4-27.7c1.5-4.4,3.2-8.8,4.9-13.1c1.6-4.2,3.9-8.1,6.7-11.5c0.8-0.9,1.6-1.8,2.9-2.1c1.1-0.3,2.4-0.4,3.5-0.4
		c4.5,0,14,1,14,7.2c0,7.9-8.9,25.8-12.2,33.9c-1.1,2.8-2.3,6-2.3,9.1c0,2.4,3.1,3,5,3c3.5,0,15.2-0.3,15.2-5.4
		c0-4.7-4.7-8.8-4.7-13.2c0-4.7,10.2-9.3,14.2-9.3c3.2,0,5.4,1.6,7.2,4.2c4.2,6.2,14.9,27.7,14.9,34.7c0,6.8-12.3,13-18.3,13
		L797.7,546.2z"/>
	<path id="XMLID_62_" class="st0" d="M830.2,478.3c0-7.2,0.5-28.9,5.9-33.5c2.3-2,6.7-2.8,9.6-3c4.8-0.4,10.5,0.1,15.1-1.4
		c4-1.3,0.8-4.4,4.5-6.8c1.6-1,9.8-1,12.1-1c4,0,9.1,0.6,9.1,5.7c0,1,1.3,1.4,2,1.6c3.8,1.1,7.8,1.3,11.7,1.5
		c3.5,0.1,15.5,0.6,18.1,1.6c7.9,3.1,7.7,17.9,7.7,24.9c0,3.8,0,8.2-2.5,11.2c-0.9,1.1-2.1,1.8-3.4,2.3c-5.4,2.1-23.1,2.1-29.5,2.1
		c-5.5,0-11.2-0.1-16.8-0.1c-1.9,0-15.6-0.5-15.6,1.8s12.2,2.1,14,2.1c13.7,0,27.6-0.5,41.3-0.5c2.1,0,4.4-0.1,6.6-0.1
		c5,0,18.9,0,18.9,7.3c0,2.1-2.4,3.3-4.2,3.8c-8.3,2.6-22.8,3-31.6,3c-10.2,0-20.3-0.5-30.5-0.5c-1.8,0-14-0.4-14,2.1
		c0,2,12.9,2,14.5,2c16.4,0,32.8-0.8,49.1-0.8c2.1,0,13.5-0.1,13.5,3.4c0,9.2-1.6,30.7-9.3,36.7c-4.8,3.7-12,3.5-17.8,3.5
		c-1,0-8.9,0.5-10-0.8c-2.4-2.9-0.4-4.7-6.2-4.7c-13.6,0-27.2-0.4-40.8-0.4c-1.3,0-2.6,0.3-3.7,1.1l-0.8,2.1c-1.6,0.3-3,0.6-4.8,0.6
		c-16.4,0-18.5-4.8-18.5-20.3c0-6.3,4.8-6,9.7-6c1.5,0,3-0.1,4.5-0.1c3.8,0,8.2,0.8,8.2,5.4c0.8,1.5,1.9,2.4,3.7,2.4
		c2.3,0,2.5-1.5,2.5-3.4c0-4.7-1.8-6.8-6.6-6.8c-1.1,0-2.3,0.1-3.4,0.1c-2,0-4.2-0.1-6-0.6c-1.4-0.4-2.5-1.3-3.4-2.4
		c-2.6-3.5-3.2-15.1-3.2-19.7v-15.4H830.2z M893.7,472.2c1.4,0,8.4-0.1,8.4-2c0-2.3-10.8-2.1-12.6-2.1c-1.9,0-3.8,0.1-5.7,0.1H865
		c-2.8,0-6.4-0.1-9.1,0.8c-0.5,0.1-1.5,0.5-1.5,1.3l0.9,1.1c1.8,0.8,11.8,0.9,14.4,0.9L893.7,472.2L893.7,472.2z M898,454.5
		c-1.6-0.3-3.3-0.3-4.9-0.3c-4.9,0-9.8-0.3-14.7-0.3c-4.5,0-19.8,0-23.3,1.8l-0.1,0.5c0,2,11.1,1.9,12.7,1.9h28.4c1.9,0,5,0,6-1.8
		C901.1,455.1,899.3,454.7,898,454.5z M903.4,516.6c-1.9,0-3.9,0.1-5.8,0.1c-2.5,0-5-0.3-7.6-0.3c-3.9,0-14.4,0.3-14.4,5.7
		c0,1.4,0.3,5.3,2.1,5.3c9.1,0-2.1-7.9,13.1-7.9c2.1,0,8.8-0.1,10.3,1c3.3,2.5-2.1,9.5,5.7,9.5c5,0,5-3,5-7.2
		C912,517.7,907.7,516.6,903.4,516.6z"/>
	<path id="XMLID_67_" class="st0" d="M518.1,580.1c0,10.7-7.6,43.1-14,51.4c-1.1,1.4-2.5,2.2-4.3,2.2c-3.3,0-12.5-4.4-12.5-8.2
		c0-3.6,6.3-18.9,7.7-23.7c0.9-3.3,1.8-6.5,2.5-9.8c1.1-4.6,1.8-9.4,3.2-13.9c0.8-2.3,2.8-4.1,5.3-4.3c1-0.1,2-0.1,3-0.1
		C514,573.7,518.1,573.9,518.1,580.1z M544.8,589.6c-7.3,0-13.8-5.6-13.8-13.1c0-6.4,5.5-11.8,11.8-11.8c7,0,14.8,6.7,14.8,13.9
		C557.7,585.5,551.1,589.6,544.8,589.6z M548,592.8c1.5,0,2.5,0,3.8,0.8c4.6,2.6,9.3,25.9,9.3,31.4c0,7-6.6,9.4-12.6,9.4
		c-2.4,0-4.2-1.7-4.8-3.9c-2.2-7.2-3.8-14.6-5.3-21.9c-0.6-2.8-1.4-6.3-1.4-9C537.1,594.9,544.3,592.8,548,592.8z M544,572.4
		c-2.7,0-4.3,2.1-4.3,4.7c0,2.5,2.3,4.8,4.8,4.8s4.3-1.8,4.3-4.3C548.8,574.9,546.8,572.4,544,572.4z"/>
	<path id="XMLID_72_" class="st0" d="M615.3,594.7c1.5,0,3.1-0.1,4.6-0.1c3.2,0,6.4,0.3,9.6,0.8c4.1,0.6,9.6,2.3,9.6,7.3
		c0,8.1-16.2,8.3-21.7,8.3c-2.4,0-4.9-0.2-7.3-0.2h-19.9c-5.7,0-24.4,0.7-24.4-8.1c0-7.8,14.2-8.1,19.6-8.1c1.5,0,3,0.1,4.5,0.1
		L615.3,594.7L615.3,594.7z"/>
	<path id="XMLID_74_" class="st0" d="M655.4,586.2c0.9-1.6,1.8-3.2,2.7-4.8c0.8-1.7,1.5-3.3,2.1-5.1c0.7-2.1,1.8-5.5,3.5-6.8
		c0.8-0.7,1.8-1,2.8-1.2c2.5-0.5,5.4-0.3,7.9-0.3c3.3,0,3.8,2.3,3.8,5.1c0,0.7,0.4,0.9,0.9,1.2c1.2,0.5,3.2,0.5,12.4,0.5
		c4.1,0,17.1-0.1,19.8,2.8c2.1,2.3,2.1,5.5,2.1,8.4c0,26.2-10.2,41.9-39,49.4c-3.5,0.9-8.8,2.1-12.3,2.1c-6,0-9.4-6.6-8.4-11.8
		c0.8-4.1,3.9-5.1,5.7-5.5c15.8-3.8,27.9-4.8,33.9-21.7c0.6-1.8,1-3.4,1-5.3c0-1.1-1-1.7-1.8-2.2c-3.1-2.1-8.4-1.6-11.8-1.6
		c-1.6,0-3.1,0.2-4.6,0.8c-6.6,2.4-7.6,19.8-16,19.5c-2.7-0.1-15.5-2.8-14.5-7.8C646.3,597.6,654.1,588,655.4,586.2z"/>
	<path id="XMLID_76_" class="st0" d="M766.5,624.8c0.8,0.9,1.5,2.1,1.5,3.3c0,2.2-9,7.8-11.1,7.8c-2.3,0-4-1.2-5.6-2.8
		c-3.3-3.3-19.8-24.1-19.8-27.6c0-4,7.4-8.4,11-8.4c5.2,0,6.3,6.9,10.3,6.9c3.3,0,16.2-10.4,16.2-13.8c0-3.8-19.5-3.7-22.7-3.7
		c-4.2,0-8.3,0.1-12.5,0.3c-1.7,0.1-3.3,0.2-4.9,0.2c-3.1,0-7.5-0.9-7.5-4.8c0-1.7,0.3-3.4,1-5c0.7-1.6,2.3-2.5,3.8-3.2
		c4.7-1.8,15.2-1.8,20.4-2.1c2.3-0.1,4.6-0.2,6.9-0.2c5.7,0,30.1-0.9,35,4c1.9,1.9,2.8,6.2,2.8,8.8c0,16.8-27.3,31-27.3,35.3
		C764.1,621.8,765.4,623.3,766.5,624.8L766.5,624.8z"/>
	<path id="XMLID_78_" class="st0" d="M813,587.8c1.5,2,4.3,14.3,4.3,16.9c0,4.3-6.3,5.3-9.7,5.3c-5.3,0-7.4-13-7.4-16.9
		c0-4.4,6.4-6.3,10-6.3C811.3,586.7,812.4,587,813,587.8z M829.5,618.2c7.8-4.8,11.3-12.1,12.1-21c0.3-2.8,0.6-8.2,1.9-10.6
		c0.8-1.3,2.1-1.6,3.4-1.6c8.7,0,10.3,2.9,10.3,11.2c0,15.1-7.8,27-21,34c-5.1,2.7-12.8,5.7-18.6,5.7c-5.2,0-6.3-3.4-7.3-7.8v0.1
		c-0.2-0.6-0.3-1.3-0.3-1.9c0-3.4,7.9-4,10.3-4.8l-0.1,0.1l1.3-0.3h-0.1C824.1,620.3,827.1,619.7,829.5,618.2L829.5,618.2z
		 M817.7,589.8c0-4,6.3-5.5,9.5-5.5c1.3,0,2.3,0.4,3.2,1.3c1.3,1.2,5.5,15.3,5.5,17.4c0,4.3-6.8,5.3-9.9,5.3
		C821.4,608.3,817.7,593.4,817.7,589.8z"/>
	<path id="XMLID_82_" class="st0" d="M908.6,602.3c1.3-2.7,2.7-5,2.7-8c0-1.7-0.3-2.8-1.8-3.7c-3.4-2.1-15-2.1-19.3-2.1
		c-4.6,0-9.1,0.5-13.7,0.5c-4.3,0-11.5,0.4-11.5-5.8c0-2.1-0.1-4.9,2.3-7.6c3.8-4.4,16.3-2,20.8-2.2c1.5-0.1,2.9-0.1,4.4-0.1
		c3.5,0,7.1,0.1,10.7,0.1c3.1,0,11.3-0.2,13.4-2.4c3.8-4.1,3.9-7.7,10.7-7.7c7.3,0,15.5,6.6,15.5,14.3c0,9-7.6,7.1-9.8,11.8
		c-0.8,1.5-0.9,3.3-1.4,5c-1.4,5.1-3.4,10.1-6.1,14.7c-8.2,13.8-20.9,21.3-36,25.7c-2.8,0.8-5.5,1.3-8.4,1.3c-7.3,0-7.1-4.8-9.8-9.9
		v-0.5c0-2.7,6.2-4.5,8.3-5.1c2.8-0.8,5.6-1.5,8.4-2.2c0.9-0.3,1.8-0.4,2.8-0.8c5.9-2.3,10.3-4.6,14.2-9.7c1.3-1.8,2.3-3.6,3.5-5.3
		C908.4,602.7,908.5,602.6,908.6,602.3L908.6,602.3z M928.5,571.1c-2.6,0-3.8,2.3-3.8,4.6c0,2.5,2.4,4.8,4.9,4.8
		c2.8,0,4.2-1.8,4.2-4.5C933.9,573.2,931.2,571.1,928.5,571.1z"/>
</g>
<g id="XMLID_134_">
	<path id="XMLID_37_" class="st1" d="M605.8,207c-23,3.4-73.2,12.1-91.4,24.6c-28.5,19.8-16.3,109.7-11.9,140l7.6,51.8
		c4.1,27.8,19.6,125.1,51.6,132.7c12.2,3.1,25.7,1.7,38.2-0.2c22.6-3.3,26.2-15.1,23.2-35.7c-1.7-12-4.9-23.8-6.7-35.8
		c-1-6.7-3.6-27.9,0-33.3c7.8-10.4,176.6-9.1,157.1-143C761.5,226,679.3,196.3,605.8,207z"/>
</g>
<g id="XMLID_36_">
	<path id="XMLID_289_" class="st2" d="M682.7,348c-9.4,4.5-19.1,7.2-28.5,8.4c1.6,1.8,3.2,3.8,4.7,5.8
		c11.7,15.8,15.7,33.2,12.2,46.4c-15.2-2.6-31.7-13-43.4-28.8c-2.3-3.1-4.3-6.3-6-9.5c-2.7,2.1-5.7,4-8.8,5.8
		c-17.3,9.7-36.6,12.6-51.6,8.8c2.3-13.5,13.2-27.7,30.4-37.5c1.3-0.7,2.6-1.4,3.9-2.1c-8.3-4.5-16.4-10.5-23.5-18
		c-15.3-16.2-22.5-35.1-20.6-50.2c17.2,1.1,37,10.6,52.3,26.8c1.9,2,3.7,4.1,5.4,6.2c0-5.3,0.4-10.8,1.4-16.3
		c4.4-23.6,17.9-42.5,34.6-51.6c12.3,14.5,18.1,37,13.7,60.6c-1,5.5-2.6,10.8-4.5,15.7c2.3-1.4,4.7-2.6,7.2-3.8
		c20.1-9.6,42-11.4,58.4-6.2C716.3,323.4,702.9,338.4,682.7,348z"/>
	<path id="XMLID_136_" class="st2" d="M606.9,398c-0.8,0.1-1.6-0.2-2.2-0.8c-1.1-1.1-1.1-2.8-0.1-3.9l0,0c0.1-0.1,8.6-9,14.2-23.5
		c7.5-19.2,6.7-38.6-2.3-57.7c-0.7-1.4-0.1-3,1.3-3.7c1.4-0.7,3-0.1,3.7,1.3c12.2,25.7,8,48,2.4,62.3c-6.1,15.4-15,24.7-15.3,25.1
		C608.2,397.7,607.6,398,606.9,398z"/>
</g>
</svg>
