<?xml version="1.0" encoding="utf-8"?>
<!-- Generator: Adobe Illustrator 19.0.0, SVG Export Plug-In . SVG Version: 6.00 Build 0)  -->
<!DOCTYPE svg PUBLIC "-//W3C//DTD SVG 1.1//EN" "http://www.w3.org/Graphics/SVG/1.1/DTD/svg11.dtd">
<svg version="1.1" id="レイヤー_1" xmlns="http://www.w3.org/2000/svg" xmlns:xlink="http://www.w3.org/1999/xlink" x="0px"
	 y="0px" viewBox="0 0 500 500" style="enable-background:new 0 0 500 500;" xml:space="preserve">
<style type="text/css">
	.st0{fill:#D44A00;}
	.st1{fill:#333333;}
	.st2{fill:#FFFFFF;}
</style>
<g id="XMLID_212_">
	<path id="XMLID_8_" class="st0" d="M352.7,73.6c-55.8-55.8-146.7-55.8-202.5,0s-55.8,146.7,0,202.5L185,311l5.1,5.1l56.1,56.1
		c2.8,2.8,7.5,2.8,10.3,0l53.8-53.8l5.1-5.1l37.1-37.2C408.5,220.3,408.5,129.5,352.7,73.6z"/>
</g>
<g id="XMLID_1_">
	<path id="XMLID_2_" class="st1" d="M193.1,410.2c-0.9-3.2-2.5-5-6-5c-13,0-25.8,3.5-38.8,3.5c-2.3,0-7-0.6-7.9-3.1
		c-0.3-0.6-0.6-4.5-1.3-4.5c-1.4,0-2.6,7.3-5.2,7.3c-3.6,0-10.9-9.8-10.9-13.1c0-4.5,2.2-9.1,2.9-13.6c1.2-7.3,1.2-15,1.2-22.4
		c0-4.3,0.2-8.7,0.6-12.9c0.1-1.2,0.4-3.1,0.8-4.2c1.7-4,8.4-4.2,12.1-4.2c3,0,6.1,0.1,9.3,0.1c1.3,0,2.6,0,3.9-0.1
		c10.5-0.6,0.1-10.1,11.5-10.1c1.5,0,2.9,0.3,4.5,0.3c3.4,0,6.3,0.1,6.3,4.3c0,12.3,31.5-2.6,31.5,14.4c0,0.7-0.2,1.6-0.5,2.2
		c-0.4,0.7-1,1.1-1.7,1.4c-3.6,1.4-15.6,1.3-20,1.3c-8.1,0-16.2-0.4-24.3-0.4c-4,0-11.2,0.2-14.8,1.8c-1.1,0.6-1.7,1.5-2.2,2.6
		c-0.7,1.9-0.8,4.5-0.8,6.5c0,2.1,0.2,4.1,0.2,6.1c0,8.2-1.8,16.1-1.8,24.2c0,1.5,1.3,2.4,2.7,2.4c0.9,0,1.7-0.1,2.5-0.6
		c4.4-3.2,8-15,9.7-20.2c1.1-3.2,2.3-6.4,3.6-9.5c1.2-3,2.8-5.9,4.9-8.4c0.6-0.6,1.2-1.3,2.1-1.6c0.8-0.2,1.7-0.3,2.6-0.3
		c3.3,0,10.2,0.7,10.2,5.2c0,5.8-6.5,18.8-8.9,24.7c-0.8,2-1.7,4.4-1.7,6.6c0,1.7,2.3,2.2,3.7,2.2c2.6,0,11.1-0.2,11.1-3.9
		c0-3.4-3.4-6.4-3.4-9.6c0-3.4,7.4-6.8,10.4-6.8c2.3,0,3.9,1.2,5.2,3c3,4.5,10.8,20.2,10.8,25.2c0,5-9,9.5-13.3,9.5L193.1,410.2z"/>
	<path id="XMLID_6_" class="st1" d="M305.1,357.3c0-5.6,0.4-22.4,4.6-26.1c1.8-1.6,5.2-2.2,7.4-2.4c3.7-0.3,8.1,0.1,11.8-1.1
		c3.1-1,0.6-3.4,3.5-5.3c1.3-0.8,7.6-0.8,9.4-0.8c3.1,0,7.1,0.5,7.1,4.4c0,0.8,1,1.1,1.6,1.3c2.9,0.9,6.1,1,9.1,1.2
		c2.7,0.1,12,0.5,14.1,1.3c6.2,2.4,6,13.9,6,19.4c0,2.9,0,6.4-2,8.7c-0.7,0.9-1.7,1.4-2.6,1.8c-4.2,1.7-17.9,1.7-22.9,1.7
		c-4.3,0-8.7-0.1-13-0.1c-1.5,0-12.1-0.4-12.1,1.4s9.5,1.7,10.9,1.7c10.7,0,21.5-0.4,32.1-0.4c1.7,0,3.4-0.1,5.1-0.1
		c3.9,0,14.7,0,14.7,5.7c0,1.7-1.9,2.5-3.2,2.9c-6.5,2.1-17.7,2.4-24.6,2.4c-7.9,0-15.8-0.4-23.7-0.4c-1.4,0-10.9-0.3-10.9,1.7
		c0,1.6,10,1.6,11.3,1.6c12.7,0,25.5-0.6,38.2-0.6c1.7,0,10.5-0.1,10.5,2.6c0,7.2-1.3,23.9-7.2,28.5c-3.7,2.8-9.3,2.7-13.8,2.7
		c-0.8,0-7,0.4-7.7-0.6c-1.9-2.3-0.3-3.6-4.8-3.6c-10.6,0-21.2-0.3-31.7-0.3c-1,0-2.1,0.2-2.8,0.9l-0.6,1.7
		c-1.3,0.2-2.4,0.5-3.7,0.5c-12.7,0-14.4-3.7-14.4-15.8c0-4.9,3.7-4.7,7.5-4.7c1.2,0,2.4-0.1,3.5-0.1c2.9,0,6.4,0.6,6.4,4.2
		c0.6,1.2,1.5,1.9,2.8,1.9c1.8,0,2-1.2,2-2.6c0-3.6-1.4-5.3-5.1-5.3c-0.9,0-1.8,0.1-2.6,0.1c-1.6,0-3.2-0.1-4.7-0.5
		c-1.1-0.3-2-1-2.6-1.9c-2.1-2.7-2.4-11.8-2.4-15.3V357.3z M354.4,352.6c1.1,0,6.6-0.1,6.6-1.6c0-1.8-8.4-1.7-9.8-1.7
		c-1.5,0-2.9,0.1-4.4,0.1h-14.6c-2.2,0-5-0.1-7.1,0.6c-0.4,0.1-1.2,0.4-1.2,1l0.7,0.9c1.4,0.6,9.2,0.7,11.2,0.7H354.4z M357.8,338.8
		c-1.3-0.2-2.5-0.2-3.8-0.2c-3.8,0-7.6-0.2-11.5-0.2c-3.5,0-15.4,0-18.1,1.4l-0.1,0.4c0,1.6,8.6,1.5,9.9,1.5h22c1.5,0,3.9,0,4.7-1.4
		C360.2,339.3,358.8,339,357.8,338.8z M362,387.1c-1.5,0-3,0.1-4.5,0.1c-2,0-3.9-0.2-5.9-0.2c-3,0-11.2,0.2-11.2,4.4
		c0,1.1,0.2,4.1,1.7,4.1c7.1,0-1.7-6.2,10.2-6.2c1.7,0,6.9-0.1,8,0.8c2.5,2-1.7,7.3,4.4,7.3c3.9,0,3.9-2.4,3.9-5.6
		C368.6,387.9,365.3,387.1,362,387.1z"/>
	<path id="XMLID_13_" class="st1" d="M78.4,424.6c0,9.4-6.7,38-12.4,45.3c-1,1.3-2.2,1.9-3.8,1.9c-2.9,0-11-3.9-11-7.2
		c0-3.2,5.5-16.7,6.8-20.9c0.8-2.9,1.5-5.7,2.2-8.6c1-4,1.5-8.3,2.8-12.3c0.7-2.1,2.5-3.6,4.7-3.8c0.9-0.1,1.8-0.1,2.6-0.1
		C74.8,419,78.4,419.1,78.4,424.6z M102,432.9c-6.4,0-12.2-4.9-12.2-11.5c0-5.7,4.9-10.4,10.4-10.4c6.2,0,13.1,5.9,13.1,12.3
		C113.3,429.3,107.5,432.9,102,432.9z M104.8,435.8c1.3,0,2.2,0,3.4,0.7c4,2.3,8.2,22.8,8.2,27.6c0,6.2-5.8,8.3-11.1,8.3
		c-2.1,0-3.7-1.5-4.3-3.5c-1.9-6.3-3.3-12.9-4.6-19.3c-0.5-2.4-1.3-5.5-1.3-7.9C95.1,437.6,101.5,435.8,104.8,435.8z M101.2,417.8
		c-2.4,0-3.7,1.8-3.7,4.1c0,2.2,2.1,4.3,4.3,4.3c2.2,0,3.7-1.6,3.7-3.8C105.5,420,103.7,417.8,101.2,417.8z"/>
	<path id="XMLID_18_" class="st1" d="M164.1,437.5c1.3,0,2.7-0.1,4-0.1c2.8,0,5.7,0.2,8.5,0.7c3.6,0.5,8.5,2.1,8.5,6.5
		c0,7.1-14.3,7.3-19.1,7.3c-2.1,0-4.3-0.1-6.5-0.1h-17.6c-5,0-21.5,0.6-21.5-7.1c0-6.9,12.5-7.1,17.3-7.1c1.3,0,2.6,0.1,4,0.1H164.1
		z"/>
	<path id="XMLID_20_" class="st1" d="M199.4,430c0.8-1.4,1.6-2.8,2.4-4.3c0.7-1.5,1.3-2.9,1.8-4.5c0.6-1.8,1.5-4.9,3.1-6
		c0.7-0.6,1.6-0.9,2.5-1c2.2-0.4,4.8-0.2,7-0.2c2.9,0,3.4,2.1,3.4,4.5c0,0.6,0.4,0.8,0.8,1c1,0.4,2.8,0.4,11,0.4
		c3.6,0,15.1-0.1,17.4,2.5c1.8,2.1,1.8,4.9,1.8,7.4c0,23.1-9,36.9-34.4,43.5c-3.1,0.8-7.7,1.8-10.9,1.8c-5.3,0-8.3-5.8-7.4-10.4
		c0.7-3.6,3.5-4.5,5-4.9c14-3.3,24.6-4.2,29.8-19.1c0.5-1.5,0.9-3,0.9-4.6c0-1-0.9-1.5-1.5-1.9c-2.7-1.8-7.4-1.4-10.4-1.4
		c-1.4,0-2.7,0.1-4,0.7c-5.8,2.1-6.7,17.4-14.1,17.2c-2.4-0.1-13.7-2.5-12.8-6.9C191.4,440,198.2,431.5,199.4,430z"/>
	<path id="XMLID_22_" class="st1" d="M297.3,464c0.7,0.8,1.3,1.8,1.3,2.9c0,1.9-7.9,6.8-9.8,6.8c-2.1,0-3.5-1-4.9-2.4
		c-2.9-2.9-17.4-21.2-17.4-24.3c0-3.5,6.5-7.4,9.7-7.4c4.6,0,5.6,6.1,9.1,6.1c2.9,0,14.3-9.2,14.3-12.1c0-3.4-17.2-3.2-20-3.2
		c-3.7,0-7.4,0.1-11,0.2c-1.5,0.1-2.9,0.1-4.3,0.1c-2.7,0-6.6-0.8-6.6-4.2c0-1.5,0.2-3,0.9-4.4c0.7-1.4,2-2.2,3.4-2.8
		c4.1-1.6,13.4-1.6,18-1.8c2.1-0.1,4-0.1,6.1-0.1c5,0,26.5-0.8,30.9,3.5c1.7,1.7,2.4,5.4,2.4,7.8c0,14.8-24,27.3-24,31.1
		C295.2,461.4,296.3,462.7,297.3,464L297.3,464z"/>
	<path id="XMLID_24_" class="st1" d="M338.3,431.4c1.3,1.8,3.8,12.6,3.8,14.9c0,3.8-5.6,4.6-8.5,4.6c-4.6,0-6.5-11.5-6.5-14.9
		c0-3.9,5.7-5.6,8.8-5.6C336.8,430.4,337.7,430.7,338.3,431.4z M352.8,458.2c6.8-4.3,9.9-10.7,10.7-18.5c0.2-2.5,0.5-7.2,1.7-9.3
		c0.7-1.1,1.8-1.4,3-1.4c7.6,0,9.1,2.6,9.1,9.9c0,13.3-6.9,23.8-18.5,30c-4.5,2.4-11.3,5-16.4,5c-4.6,0-5.6-3-6.5-6.9v0.1
		c-0.1-0.5-0.2-1.1-0.2-1.7c0-3,7-3.5,9-4.3l-0.1,0.1l1.1-0.3h-0.1C348.1,460,350.7,459.5,352.8,458.2L352.8,458.2z M342.4,433.2
		c0-3.5,5.6-4.9,8.4-4.9c1.1,0,2,0.4,2.8,1.1c1.2,1,4.9,13.5,4.9,15.4c0,3.7-6,4.7-8.7,4.7C345.7,449.5,342.4,436.3,342.4,433.2z"/>
	<path id="XMLID_28_" class="st1" d="M422.6,444.2c1.1-2.4,2.4-4.4,2.4-7.1c0-1.5-0.3-2.4-1.6-3.2c-3-1.8-13.2-1.8-17-1.8
		c-4,0-8,0.4-12.1,0.4c-3.8,0-10.1,0.4-10.1-5.1c0-1.8-0.1-4.3,2-6.7c3.4-3.9,14.4-1.8,18.3-1.9c1.3-0.1,2.6-0.1,3.9-0.1
		c3.1,0,6.2,0.1,9.4,0.1c2.7,0,10-0.1,11.8-2.1c3.3-3.6,3.5-6.8,9.4-6.8c6.5,0,13.7,5.8,13.7,12.6c0,7.9-6.7,6.2-8.7,10.4
		c-0.7,1.3-0.8,2.9-1.3,4.4c-1.2,4.5-3,8.9-5.4,12.9c-7.2,12.2-18.4,18.7-31.7,22.6c-2.4,0.7-4.9,1.2-7.4,1.2
		c-6.4,0-6.2-4.3-8.7-8.7v-0.4c0-2.4,5.4-4,7.3-4.5c2.4-0.7,4.9-1.3,7.4-1.9c0.8-0.2,1.6-0.4,2.4-0.7c5.2-2,9-4,12.5-8.5
		c1.2-1.5,2-3.2,3.1-4.6C422.3,444.5,422.5,444.4,422.6,444.2L422.6,444.2z M440.1,416.7c-2.3,0-3.3,2-3.3,4c0,2.2,2.1,4.3,4.3,4.3
		c2.5,0,3.7-1.5,3.7-4C444.8,418.5,442.5,416.7,440.1,416.7z"/>
</g>
<g id="XMLID_59_">
	<path id="XMLID_60_" class="st1" d="M852.7,380.3c-1.3-4.4-3.4-6.8-8.2-6.8c-17.9,0-35.4,4.8-53.3,4.8c-3.2,0-9.6-0.9-10.8-4.3
		c-0.4-0.9-0.8-6.2-1.8-6.2c-1.9,0-3.5,10.1-7.2,10.1c-4.9,0-15-13.5-15-18c0-6.2,3-12.5,4-18.6c1.6-10.1,1.6-20.5,1.6-30.7
		c0-5.9,0.3-12,0.9-17.8c0.1-1.6,0.5-4.3,1.1-5.8c2.4-5.5,11.5-5.8,16.6-5.8c4.2,0,8.4,0.1,12.7,0.1c1.8,0,3.5,0,5.3-0.1
		c14.4-0.9,0.1-13.9,15.8-13.9c2,0,4,0.4,6.2,0.4c4.7,0,8.7,0.1,8.7,5.9c0,16.9,43.2-3.5,43.2,19.8c0,1-0.3,2.1-0.6,3
		c-0.5,1-1.4,1.5-2.4,1.9c-4.9,1.9-21.4,1.8-27.5,1.8c-11.1,0-22.3-0.5-33.4-0.5c-5.5,0-15.4,0.3-20.3,2.5c-1.5,0.8-2.4,2-3,3.5
		c-1,2.6-1.1,6.2-1.1,8.9c0,2.9,0.3,5.7,0.3,8.4c0,11.2-2.5,22.1-2.5,33.3c0,2,1.8,3.3,3.7,3.3c1.3,0,2.4-0.1,3.4-0.9
		c6-4.4,11-20.5,13.4-27.7c1.5-4.4,3.2-8.8,4.9-13.1c1.6-4.2,3.9-8.1,6.7-11.5c0.8-0.9,1.6-1.8,2.9-2.1c1.1-0.3,2.4-0.4,3.5-0.4
		c4.5,0,14,1,14,7.2c0,7.9-8.9,25.8-12.2,33.9c-1.1,2.8-2.3,6-2.3,9.1c0,2.4,3.1,3,5,3c3.5,0,15.2-0.3,15.2-5.4
		c0-4.7-4.7-8.8-4.7-13.2c0-4.7,10.2-9.3,14.2-9.3c3.2,0,5.4,1.6,7.2,4.2c4.2,6.2,14.9,27.7,14.9,34.7c0,6.8-12.3,13-18.3,13
		L852.7,380.3z"/>
	<path id="XMLID_62_" class="st1" d="M885.2,312.4c0-7.2,0.5-28.9,5.9-33.5c2.3-2,6.7-2.8,9.6-3c4.8-0.4,10.5,0.1,15.1-1.4
		c4-1.3,0.8-4.4,4.5-6.8c1.6-1,9.8-1,12.1-1c4,0,9.1,0.6,9.1,5.7c0,1,1.3,1.4,2,1.6c3.8,1.1,7.8,1.3,11.7,1.5
		c3.5,0.1,15.5,0.6,18.1,1.6c7.9,3.1,7.7,17.9,7.7,24.9c0,3.8,0,8.2-2.5,11.2c-0.9,1.1-2.1,1.8-3.4,2.3c-5.4,2.1-23.1,2.1-29.5,2.1
		c-5.5,0-11.2-0.1-16.8-0.1c-1.9,0-15.6-0.5-15.6,1.8c0,2.3,12.2,2.1,14,2.1c13.7,0,27.6-0.5,41.3-0.5c2.1,0,4.4-0.1,6.6-0.1
		c5,0,18.9,0,18.9,7.3c0,2.1-2.4,3.3-4.2,3.8c-8.3,2.6-22.8,3-31.6,3c-10.2,0-20.3-0.5-30.5-0.5c-1.8,0-14-0.4-14,2.1
		c0,2,12.9,2,14.5,2c16.4,0,32.8-0.8,49.1-0.8c2.1,0,13.5-0.1,13.5,3.4c0,9.2-1.6,30.7-9.3,36.7c-4.8,3.7-12,3.5-17.8,3.5
		c-1,0-8.9,0.5-10-0.8c-2.4-2.9-0.4-4.7-6.2-4.7c-13.6,0-27.2-0.4-40.8-0.4c-1.3,0-2.6,0.3-3.7,1.1l-0.8,2.1c-1.6,0.3-3,0.6-4.8,0.6
		c-16.4,0-18.5-4.8-18.5-20.3c0-6.3,4.8-6,9.7-6c1.5,0,3-0.1,4.5-0.1c3.8,0,8.2,0.8,8.2,5.4c0.8,1.5,1.9,2.4,3.7,2.4
		c2.3,0,2.5-1.5,2.5-3.4c0-4.7-1.8-6.8-6.6-6.8c-1.1,0-2.3,0.1-3.4,0.1c-2,0-4.2-0.1-6-0.6c-1.4-0.4-2.5-1.3-3.4-2.4
		c-2.6-3.5-3.2-15.1-3.2-19.7V312.4z M948.7,306.3c1.4,0,8.4-0.1,8.4-2c0-2.3-10.8-2.1-12.6-2.1c-1.9,0-3.8,0.1-5.7,0.1h-18.8
		c-2.8,0-6.4-0.1-9.1,0.8c-0.5,0.1-1.5,0.5-1.5,1.3l0.9,1.1c1.8,0.8,11.8,0.9,14.4,0.9H948.7z M953,288.6c-1.6-0.3-3.3-0.3-4.9-0.3
		c-4.9,0-9.8-0.3-14.7-0.3c-4.5,0-19.8,0-23.3,1.8l-0.1,0.5c0,2,11.1,1.9,12.7,1.9h28.4c1.9,0,5,0,6-1.8
		C956.1,289.2,954.3,288.8,953,288.6z M958.4,350.7c-1.9,0-3.9,0.1-5.8,0.1c-2.5,0-5-0.3-7.6-0.3c-3.9,0-14.4,0.3-14.4,5.7
		c0,1.4,0.3,5.3,2.1,5.3c9.1,0-2.1-7.9,13.1-7.9c2.1,0,8.8-0.1,10.3,1c3.3,2.5-2.1,9.5,5.7,9.5c5,0,5-3,5-7.2
		C967,351.8,962.7,350.7,958.4,350.7z"/>
	<path id="XMLID_67_" class="st1" d="M573.1,414.2c0,10.7-7.6,43.1-14,51.4c-1.1,1.4-2.5,2.2-4.3,2.2c-3.3,0-12.5-4.4-12.5-8.2
		c0-3.6,6.3-18.9,7.7-23.7c0.9-3.3,1.8-6.5,2.5-9.8c1.1-4.6,1.8-9.4,3.2-13.9c0.8-2.3,2.8-4.1,5.3-4.3c1-0.1,2-0.1,3-0.1
		C569,407.8,573.1,408,573.1,414.2z M599.8,423.7c-7.3,0-13.8-5.6-13.8-13.1c0-6.4,5.5-11.8,11.8-11.8c7,0,14.8,6.7,14.8,13.9
		C612.7,419.6,606.1,423.7,599.8,423.7z M603,426.9c1.5,0,2.5,0,3.8,0.8c4.6,2.6,9.3,25.9,9.3,31.4c0,7-6.6,9.4-12.6,9.4
		c-2.4,0-4.2-1.7-4.8-3.9c-2.2-7.2-3.8-14.6-5.3-21.9c-0.6-2.8-1.4-6.3-1.4-9C592.1,429,599.3,426.9,603,426.9z M599,406.5
		c-2.7,0-4.3,2.1-4.3,4.7c0,2.5,2.3,4.8,4.8,4.8c2.5,0,4.3-1.8,4.3-4.3C603.8,409,601.8,406.5,599,406.5z"/>
	<path id="XMLID_72_" class="st1" d="M670.3,428.8c1.5,0,3.1-0.1,4.6-0.1c3.2,0,6.4,0.3,9.6,0.8c4.1,0.6,9.6,2.3,9.6,7.3
		c0,8.1-16.2,8.3-21.7,8.3c-2.4,0-4.9-0.2-7.3-0.2h-19.9c-5.7,0-24.4,0.7-24.4-8.1c0-7.8,14.2-8.1,19.6-8.1c1.5,0,3,0.1,4.5,0.1
		H670.3z"/>
	<path id="XMLID_74_" class="st1" d="M710.4,420.3c0.9-1.6,1.8-3.2,2.7-4.8c0.8-1.7,1.5-3.3,2.1-5.1c0.7-2.1,1.8-5.5,3.5-6.8
		c0.8-0.7,1.8-1,2.8-1.2c2.5-0.5,5.4-0.3,7.9-0.3c3.3,0,3.8,2.3,3.8,5.1c0,0.7,0.4,0.9,0.9,1.2c1.2,0.5,3.2,0.5,12.4,0.5
		c4.1,0,17.1-0.1,19.8,2.8c2.1,2.3,2.1,5.5,2.1,8.4c0,26.2-10.2,41.9-39,49.4c-3.5,0.9-8.8,2.1-12.3,2.1c-6,0-9.4-6.6-8.4-11.8
		c0.8-4.1,3.9-5.1,5.7-5.5c15.8-3.8,27.9-4.8,33.9-21.7c0.6-1.8,1-3.4,1-5.3c0-1.1-1-1.7-1.8-2.2c-3.1-2.1-8.4-1.6-11.8-1.6
		c-1.6,0-3.1,0.2-4.6,0.8c-6.6,2.4-7.6,19.8-16,19.5c-2.7-0.1-15.5-2.8-14.5-7.8C701.3,431.7,709.1,422.1,710.4,420.3z"/>
	<path id="XMLID_76_" class="st1" d="M821.5,458.9c0.8,0.9,1.5,2.1,1.5,3.3c0,2.2-9,7.8-11.1,7.8c-2.3,0-4-1.2-5.6-2.8
		c-3.3-3.3-19.8-24.1-19.8-27.6c0-4,7.4-8.4,11-8.4c5.2,0,6.3,6.9,10.3,6.9c3.3,0,16.2-10.4,16.2-13.8c0-3.8-19.5-3.7-22.7-3.7
		c-4.2,0-8.3,0.1-12.5,0.3c-1.7,0.1-3.3,0.2-4.9,0.2c-3.1,0-7.5-0.9-7.5-4.8c0-1.7,0.3-3.4,1-5s2.3-2.5,3.8-3.2
		c4.7-1.8,15.2-1.8,20.4-2.1c2.3-0.1,4.6-0.2,6.9-0.2c5.7,0,30.1-0.9,35,4c1.9,1.9,2.8,6.2,2.8,8.8c0,16.8-27.3,31-27.3,35.3
		C819.1,455.9,820.4,457.4,821.5,458.9L821.5,458.9z"/>
	<path id="XMLID_78_" class="st1" d="M868,421.9c1.5,2,4.3,14.3,4.3,16.9c0,4.3-6.3,5.3-9.7,5.3c-5.3,0-7.4-13-7.4-16.9
		c0-4.4,6.4-6.3,10-6.3C866.3,420.8,867.4,421.1,868,421.9z M884.5,452.3c7.8-4.8,11.3-12.1,12.1-21c0.3-2.8,0.6-8.2,1.9-10.6
		c0.8-1.3,2.1-1.6,3.4-1.6c8.7,0,10.3,2.9,10.3,11.2c0,15.1-7.8,27-21,34c-5.1,2.7-12.8,5.7-18.6,5.7c-5.2,0-6.3-3.4-7.3-7.8v0.1
		c-0.2-0.6-0.3-1.3-0.3-1.9c0-3.4,7.9-4,10.3-4.8l-0.1,0.1l1.3-0.3h-0.1C879.1,454.4,882.1,453.8,884.5,452.3L884.5,452.3z
		 M872.7,423.9c0-4,6.3-5.5,9.5-5.5c1.3,0,2.3,0.4,3.2,1.3c1.3,1.2,5.5,15.3,5.5,17.4c0,4.3-6.8,5.3-9.9,5.3
		C876.4,442.4,872.7,427.5,872.7,423.9z"/>
	<path id="XMLID_82_" class="st1" d="M963.6,436.4c1.3-2.7,2.7-5,2.7-8c0-1.7-0.3-2.8-1.8-3.7c-3.4-2.1-15-2.1-19.3-2.1
		c-4.6,0-9.1,0.5-13.7,0.5c-4.3,0-11.5,0.4-11.5-5.8c0-2.1-0.1-4.9,2.3-7.6c3.8-4.4,16.3-2,20.8-2.2c1.5-0.1,2.9-0.1,4.4-0.1
		c3.5,0,7.1,0.1,10.7,0.1c3.1,0,11.3-0.2,13.4-2.4c3.8-4.1,3.9-7.7,10.7-7.7c7.3,0,15.5,6.6,15.5,14.3c0,9-7.6,7.1-9.8,11.8
		c-0.8,1.5-0.9,3.3-1.4,5c-1.4,5.1-3.4,10.1-6.1,14.7c-8.2,13.8-20.9,21.3-36,25.7c-2.8,0.8-5.5,1.3-8.4,1.3c-7.3,0-7.1-4.8-9.8-9.9
		v-0.5c0-2.7,6.2-4.5,8.3-5.1c2.8-0.8,5.6-1.5,8.4-2.2c0.9-0.3,1.8-0.4,2.8-0.8c5.9-2.3,10.3-4.6,14.2-9.7c1.3-1.8,2.3-3.6,3.5-5.3
		C963.4,436.8,963.5,436.7,963.6,436.4L963.6,436.4z M983.5,405.2c-2.6,0-3.8,2.3-3.8,4.6c0,2.5,2.4,4.8,4.9,4.8
		c2.8,0,4.2-1.8,4.2-4.5C988.9,407.3,986.2,405.2,983.5,405.2z"/>
</g>
<g id="XMLID_134_">
	<path id="XMLID_37_" class="st0" d="M660.8,41.1c-23,3.4-73.2,12.1-91.4,24.6c-28.5,19.8-16.3,109.7-11.9,140l7.6,51.8
		c4.1,27.8,19.6,125.1,51.6,132.7c12.2,3.1,25.7,1.7,38.2-0.2c22.6-3.3,26.2-15.1,23.2-35.7c-1.7-12-4.9-23.8-6.7-35.8
		c-1-6.7-3.6-27.9,0-33.3c7.8-10.4,176.6-9.1,157.1-143C816.5,60.1,734.3,30.4,660.8,41.1z"/>
</g>
<g id="XMLID_364_">
	<path id="XMLID_7_" class="st2" d="M317.5,189c-9.1,6.6-18.9,11.5-28.7,14.6c2.1,1.6,4.2,3.4,6.2,5.3c15.6,14.5,23.3,32.2,22.2,47
		c-16.7,0.2-36.3-7.6-51.9-22.1c-3.1-2.9-5.8-5.8-8.3-8.9c-2.5,2.7-5.2,5.4-8.3,7.9c-16.4,13.8-36.5,20.6-53.2,19.6
		c-0.3-14.8,8.5-32.1,24.9-45.9c1.2-1,2.5-2,3.7-3c-9.7-3.1-19.5-8-28.5-14.5c-19.5-14.2-30.8-32.8-31.8-49.3
		c18.5-2.3,41.4-0.2,60.9,14c2.4,1.8,4.8,3.6,6.9,5.5c-1.1-5.6-1.7-11.5-1.7-17.6c0-25.9,10.6-44.6,26.6-57.6
		c16,13,26.6,31.6,26.6,57.6c0,6.1-0.6,12-1.7,17.6c2.2-1.9,4.5-3.8,6.9-5.5c19.5-14.2,42.4-16.3,60.9-14
		C348.3,156.1,337,174.8,317.5,189z"/>
	<path id="XMLID_161_" class="st2" d="M243.2,262.1c-0.8,0.1-1.6-0.1-2.2-0.6c-1.1-1-1.3-2.7-0.3-3.9l0,0c0.1-0.1,8.1-9.4,13-24.1
		c6.5-19.6,4.7-38.9-5.4-57.4c-0.7-1.3-0.2-3,1.1-3.7c1.3-0.7,3-0.2,3.7,1.1c13.5,24.9,10.5,47.5,5.7,62
		c-5.3,15.7-13.6,25.4-14,25.8C244.4,261.7,243.8,262,243.2,262.1z"/>
</g>
<g id="XMLID_36_">
	<path id="XMLID_289_" class="st2" d="M737.7,182.1c-9.4,4.5-19.1,7.2-28.5,8.4c1.6,1.8,3.2,3.8,4.7,5.8
		c11.7,15.8,15.7,33.2,12.2,46.4c-15.2-2.6-31.7-13-43.4-28.8c-2.3-3.1-4.3-6.3-6-9.5c-2.7,2.1-5.7,4-8.8,5.8
		c-17.3,9.7-36.6,12.6-51.6,8.8c2.3-13.5,13.2-27.7,30.4-37.5c1.3-0.7,2.6-1.4,3.9-2.1c-8.3-4.5-16.4-10.5-23.5-18
		c-15.3-16.2-22.5-35.1-20.6-50.2c17.2,1.1,37,10.6,52.3,26.8c1.9,2,3.7,4.1,5.4,6.2c0-5.3,0.4-10.8,1.4-16.3
		c4.4-23.6,17.9-42.5,34.6-51.6c12.3,14.5,18.1,37,13.7,60.6c-1,5.5-2.6,10.8-4.5,15.7c2.3-1.4,4.7-2.6,7.2-3.8
		c20.1-9.6,42-11.4,58.4-6.2C771.3,157.5,757.9,172.5,737.7,182.1z"/>
	<path id="XMLID_136_" class="st2" d="M661.9,232.1c-0.8,0.1-1.6-0.2-2.2-0.8c-1.1-1.1-1.1-2.8-0.1-3.9l0,0c0.1-0.1,8.6-9,14.2-23.5
		c7.5-19.2,6.7-38.6-2.3-57.7c-0.7-1.4-0.1-3,1.3-3.7c1.4-0.7,3-0.1,3.7,1.3c12.2,25.7,8,48,2.4,62.3c-6.1,15.4-15,24.7-15.3,25.1
		C663.2,231.8,662.6,232.1,661.9,232.1z"/>
</g>
</svg>
